<?xml version="1.0" standalone="no"?>
<!DOCTYPE svg PUBLIC "-//W3C//DTD SVG 20010904//EN"
 "http://www.w3.org/TR/2001/REC-SVG-20010904/DTD/svg10.dtd">
<svg version="1.0" xmlns="http://www.w3.org/2000/svg"
 width="581.000000pt" height="587.841419pt" viewBox="0 0 581.000000 587.841419"
 preserveAspectRatio="xMidYMid meet">
<metadata>
Created by potrace 1.12, written by Peter Selinger 2001-2015
</metadata>
<g transform="translate(-217.000000,798.000000) scale(0.100000,-0.100000)"
fill="#000000" stroke="none">
<path d="M2195 7955 l-25 -24 0 -243 0 -243 163 -160 c89 -88 248 -243 352
-345 476 -463 549 -533 1020 -989 163 -158 399 -387 668 -648 487 -475 681
-658 697 -658 15 0 132 111 815 775 94 91 240 233 325 315 85 82 232 224 325
315 176 171 376 363 556 535 57 55 234 226 394 380 159 154 336 325 392 379
l103 99 0 248 0 248 -26 20 c-26 20 -38 21 -395 21 l-368 0 -448 -437 c-480
-469 -1274 -1245 -1515 -1482 l-147 -145 -23 20 c-13 10 -95 89 -183 174 -88
85 -216 209 -285 275 -69 66 -204 197 -300 291 -171 167 -519 504 -1070 1037
l-275 266 -363 1 -363 0 -24 -25z m701 -393 c55 -53 145 -139 200 -191 100
-96 311 -300 659 -640 240 -235 517 -504 665 -646 63 -61 233 -224 376 -363
144 -138 268 -252 276 -252 8 0 25 12 39 26 13 14 132 130 264 257 132 127
305 294 385 371 80 78 222 215 315 306 94 90 238 230 320 310 83 80 278 269
435 420 157 151 337 325 401 387 l116 113 151 0 152 0 0 -34 c0 -27 -8 -41
-42 -71 -24 -21 -191 -182 -373 -359 -181 -176 -393 -381 -470 -455 -77 -74
-221 -214 -320 -311 -99 -96 -313 -304 -475 -460 -162 -157 -430 -418 -594
-582 l-300 -296 -236 226 c-129 125 -350 339 -490 477 -140 138 -318 311 -395
385 -77 73 -237 229 -355 344 -292 286 -514 502 -837 815 -264 255 -292 288
-266 314 3 4 72 7 152 7 l146 0 101 -98z"/>
<path d="M2198 6985 l-28 -16 0 -177 0 -178 223 -214 c122 -118 386 -374 587
-570 201 -195 425 -413 499 -485 154 -148 340 -329 860 -835 683 -666 729
-710 739 -710 6 0 25 17 41 37 17 21 135 139 263 262 233 225 775 751 1133
1101 204 200 428 416 675 655 85 83 240 233 345 335 104 102 242 235 305 295
63 61 120 117 127 125 9 10 12 67 13 187 l0 172 -32 15 c-17 9 -40 16 -50 16
-12 0 -106 -85 -236 -212 -119 -117 -316 -310 -437 -429 -121 -119 -319 -312
-440 -430 -121 -118 -299 -291 -395 -384 -96 -94 -314 -305 -485 -470 -170
-165 -413 -402 -540 -526 -126 -125 -244 -238 -261 -252 l-31 -26 -209 201
c-115 111 -355 344 -534 517 -320 311 -775 750 -1060 1026 -181 174 -453 440
-763 745 -146 145 -246 236 -260 237 -12 2 -34 -4 -49 -12z"/>
<path d="M3917 4310 c-59 -60 -107 -116 -107 -122 0 -7 233 -241 518 -519 675
-659 721 -703 742 -707 12 -2 95 72 251 225 129 126 405 395 614 598 209 202
384 379 390 392 8 22 -1 34 -102 135 -95 95 -115 110 -131 102 -11 -5 -243
-229 -517 -499 -273 -269 -499 -489 -501 -488 -7 2 -158 149 -648 627 -203
199 -376 362 -385 364 -11 2 -57 -38 -124 -108z"/>
<path d="M3063 4298 c-57 -57 -103 -110 -103 -119 0 -8 57 -71 128 -139 70
-69 237 -233 372 -365 1588 -1558 1600 -1569 1611 -1573 5 -2 51 39 102 90 50
52 254 251 452 443 685 665 1565 1536 1565 1549 0 6 -46 57 -102 113 -75 75
-109 103 -127 103 -19 0 -88 -62 -290 -262 -146 -145 -435 -430 -641 -633
-206 -204 -505 -499 -665 -657 l-290 -287 -235 233 c-373 369 -1071 1055
-1463 1437 -94 92 -178 165 -190 167 -16 2 -49 -24 -124 -100z"/>
</g>
</svg>
